<svg width="26" height="37" viewBox="0 0 26 37" fill="none" xmlns="http://www.w3.org/2000/svg">
<path d="M13.9129 7.92455C11.4642 9.57973 4.72429 14.8188 3.72511 22.9259C2.88752 29.721 7.82024 36.0785 14.6665 36.1585C20.9128 36.2313 25.9999 31.1898 25.9999 24.9595C25.9999 15.7068 18.3561 9.73012 15.6985 7.93175C15.1577 7.56616 14.4537 7.55896 13.9129 7.92455Z" fill="#C80A50"/>
<path d="M11.6002 28.9595C9.83546 28.9595 8.40029 27.5243 8.40029 25.7595V22.5596C8.40029 20.7948 9.83546 19.3596 11.6002 19.3596C13.365 19.3596 14.8002 20.7948 14.8002 22.5596V25.7595C14.8002 27.5243 13.365 28.9595 11.6002 28.9595ZM11.6002 20.9596C10.7178 20.9596 10.0003 21.6772 10.0003 22.5596V25.7595C10.0003 26.6419 10.7178 27.3595 11.6002 27.3595C12.4826 27.3595 13.2002 26.6419 13.2002 25.7595V22.5596C13.2002 21.6772 12.4826 20.9596 11.6002 20.9596Z" fill="#F0F0F0"/>
<path d="M20.4001 30.5594H17.2002C16.7586 30.5594 16.4002 30.201 16.4002 29.7594V29.3594C16.4002 27.8154 17.6562 26.5594 19.2002 26.5594C19.421 26.5594 19.6002 26.3802 19.6002 26.1595C19.6002 25.9387 19.421 25.7595 19.2002 25.7595H17.2002C16.7586 25.7595 16.4002 25.4011 16.4002 24.9595C16.4002 24.5179 16.7586 24.1595 17.2002 24.1595H19.2002C20.3025 24.1595 21.2001 25.0571 21.2001 26.1595C21.2001 27.2618 20.3025 28.1594 19.2002 28.1594C18.6786 28.1594 18.2338 28.4938 18.0682 28.9594H20.4001C20.8417 28.9594 21.2001 29.3178 21.2001 29.7594C21.2001 30.201 20.8417 30.5594 20.4001 30.5594Z" fill="#F0F0F0"/>
<path d="M3.54591 0.598394C2.22433 2.25117 0.28756 5.13192 0.0211641 8.09987C-0.217232 10.7518 1.58194 13.243 4.2275 13.5438C7.12985 13.8734 9.58981 11.6118 9.58981 8.77586C9.58981 5.57351 7.45384 2.37116 6.03147 0.594394C5.39548 -0.200793 4.1827 -0.196793 3.54591 0.598394Z" fill="#C80A50"/>
</svg>
