<svg width="32" height="32" viewBox="0 0 32 32" fill="none" xmlns="http://www.w3.org/2000/svg">
<path d="M29.71 14C29.5289 14.7024 29.2495 15.3758 28.88 16C28.5074 16.6683 28.0429 17.2809 27.5 17.82L16.71 28.62C16.5204 28.8059 16.2655 28.9101 16 28.9101C15.7345 28.9101 15.4796 28.8059 15.29 28.62L4.5 17.82C3.95709 17.2809 3.49256 16.6683 3.12 16C2.75051 15.3758 2.47108 14.7024 2.29 14C1.80664 12.2427 1.89234 10.3774 2.53479 8.67177C3.17724 6.96616 4.34343 5.50787 5.86604 4.50612C7.38865 3.50438 9.18944 3.01065 11.01 3.09578C12.8307 3.18092 14.5775 3.84053 16 4.98C17.4225 3.84053 19.1693 3.18092 20.99 3.09578C22.8106 3.01065 24.6113 3.50438 26.134 4.50612C27.6566 5.50787 28.8228 6.96616 29.4652 8.67177C30.1077 10.3774 30.1934 12.2427 29.71 14Z" fill="#F15E70"/>
<path d="M29.71 14C29.5289 14.7024 29.2495 15.3758 28.88 16H23C22.7909 15.9985 22.5873 15.9323 22.4172 15.8106C22.2472 15.6888 22.1189 15.5175 22.05 15.32L21 12.16L19.95 15.32C19.8811 15.5175 19.7528 15.6888 19.5828 15.8106C19.4127 15.9323 19.2091 15.9985 19 16H16.62L14.89 19.45C14.808 19.6158 14.6811 19.7552 14.5238 19.8525C14.3664 19.9497 14.185 20.0008 14 20H13.93C13.7331 19.9845 13.545 19.9119 13.3887 19.7911C13.2324 19.6703 13.1147 19.5066 13.05 19.32L10.91 12.91L9.93 15.37C9.8559 15.5561 9.72763 15.7156 9.56182 15.8279C9.396 15.9402 9.20028 16.0002 9 16H3.12C2.75051 15.3758 2.47108 14.7024 2.29 14H8.32L10.07 9.63C10.145 9.43865 10.2772 9.27508 10.4486 9.16154C10.6199 9.04801 10.8221 8.99002 11.0275 8.99549C11.233 9.00095 11.4318 9.0696 11.5969 9.19208C11.7619 9.31456 11.8852 9.48493 11.95 9.68L14.19 16.39L15.11 14.55C15.1909 14.3834 15.3176 14.2432 15.4752 14.1458C15.6328 14.0484 15.8148 13.9979 16 14H18.28L20.05 8.68C20.1158 8.47993 20.243 8.30573 20.4136 8.18223C20.5842 8.05874 20.7894 7.99225 21 7.99225C21.2106 7.99225 21.4158 8.05874 21.5864 8.18223C21.757 8.30573 21.8842 8.47993 21.95 8.68L23.72 14H29.71Z" fill="#EDF8FE"/>
</svg>
