<svg width="33" height="28" viewBox="0 0 33 28" fill="none" xmlns="http://www.w3.org/2000/svg">
<path d="M9.55494 1.96256C14.3849 1.89712 18.3109 5.73562 18.3494 10.5659C18.3758 13.8876 16.5351 16.7815 13.814 18.2616C12.6396 18.9004 11.8459 20.0675 11.6506 21.39C11.2627 24.0163 9.00881 25.9617 6.354 25.9617C3.39706 25.9617 1 23.5647 1 20.6077V10.6366C1 5.88562 4.81925 2.02674 9.55494 1.96256Z" fill="#FFDA8F"/>
<path d="M9.55494 1.96256C14.3849 1.89712 18.3109 5.73562 18.3494 10.5659C18.3758 13.8876 16.5351 16.7815 13.814 18.2616C12.6396 18.9004 11.8459 20.0675 11.6506 21.39C11.2627 24.0163 9.00881 25.9617 6.354 25.9617C3.39706 25.9617 1 23.5647 1 20.6077V10.6366C1 5.88562 4.81925 2.02674 9.55494 1.96256Z" stroke="#FFA96B" stroke-miterlimit="10" stroke-linecap="round" stroke-linejoin="round"/>
<path d="M5.20438 16.3803C4.48144 16.6307 3.69231 16.2476 3.44188 15.5247C3.19144 14.8018 3.5745 14.0126 4.29744 13.7622C5.52594 13.3366 6.17681 11.9958 5.75125 10.7673C5.63131 10.421 5.43863 10.1206 5.19619 9.87726C4.194 8.87126 4.18063 7.23263 5.17281 6.21669C6.345 5.02951 7.95044 4.35044 9.61681 4.32788C11.2864 4.32788 12.9123 4.96232 14.0961 6.12094C15.2997 7.29894 15.9701 8.88419 15.9836 10.5846C16.0023 12.9206 14.7377 15.0659 12.6836 16.1832" stroke="#FFA96B" stroke-miterlimit="10" stroke-linecap="round" stroke-linejoin="round"/>
<path d="M3.45331 19.4581C3.45331 20.6637 4.43469 21.6667 5.61925 21.6667C6.85787 21.6667 7.87137 20.6531 7.87137 19.4145C7.87137 18.5173 8.197 17.6335 8.76262 16.9371C9.32694 16.2424 9.67481 15.357 9.67481 14.4048C9.67481 12.1888 7.87837 10.3923 5.66237 10.3923" stroke="#FFA96B" stroke-miterlimit="10" stroke-linecap="round" stroke-linejoin="round"/>
<path d="M29.6639 25.7658L28.5497 21.37L24.1857 22.603L25.4186 18.2389L21.0228 17.1247L24.2725 13.9618L21.0228 10.7989L25.4186 9.68465L24.1857 5.32059L28.5497 6.55353L29.6639 2.15771" stroke="#FFA96B" stroke-miterlimit="10" stroke-linecap="round" stroke-linejoin="round"/>
<path d="M31.75 5.12012L30.5211 9.96818L28.1686 9.30349L28.8332 11.6561L26.4635 12.2567L28.2153 13.9618L26.4635 15.6669L28.8332 16.2676L28.1686 18.6201L30.5211 17.9554L31.75 22.8035" stroke="#FFA96B" stroke-miterlimit="10" stroke-linecap="round" stroke-linejoin="round"/>
<path d="M26.4033 2.83575L25.3434 1" stroke="#FFA96B" stroke-miterlimit="10" stroke-linecap="round" stroke-linejoin="round"/>
<path d="M21.9444 7.67885L20.4686 6.82678" stroke="#FFA96B" stroke-miterlimit="10" stroke-linecap="round" stroke-linejoin="round"/>
<path d="M26.4033 25.0878L25.3434 26.9235" stroke="#FFA96B" stroke-miterlimit="10" stroke-linecap="round" stroke-linejoin="round"/>
<path d="M21.9444 20.2447L20.4686 21.0968" stroke="#FFA96B" stroke-miterlimit="10" stroke-linecap="round" stroke-linejoin="round"/>
</svg>
