<svg width="25" height="32" viewBox="0 0 25 32" fill="none" xmlns="http://www.w3.org/2000/svg">
<path d="M8.95295 13.4927L11.236 11.429C11.236 11.429 12.1031 10.5202 13.0161 11.429C13.8239 12.2329 15.5756 13.7622 15.5756 13.7622L16.5184 11.7589C16.5184 11.7589 14.138 10.5805 13.0609 8.15236L13.0636 0.250427H10.9963L10.9529 8.15236C10.9529 8.15236 10.6734 9.69674 7.89238 11.7472L8.95295 13.4927Z" fill="white"/>
<path d="M15.6609 14.1691L15.4109 13.9509C15.3391 13.8882 13.6438 12.407 12.8394 11.6064C12.6168 11.3849 12.381 11.274 12.1423 11.2755C11.7358 11.2789 11.4195 11.5994 11.4163 11.6026L11.4039 11.6147L8.89613 13.8814L7.55938 11.6814L7.7437 11.5456C10.2312 9.71156 10.6584 8.29625 10.7025 8.1235L10.7473 0H13.3141L13.3114 8.09881C14.3498 10.3855 16.6066 11.5233 16.6295 11.5346L16.8495 11.6435L15.6609 14.1691ZM12.1493 10.7747C12.5239 10.7747 12.8748 10.935 13.1928 11.2515C13.8044 11.8602 14.9783 12.9028 15.4908 13.3544L16.1911 11.8663C15.5645 11.5076 13.7531 10.3303 12.8321 8.25387L12.8105 8.20538L12.8131 0.500813H11.2453L11.2031 8.1755L11.1993 8.19694C11.1874 8.2625 10.8836 9.79338 8.22445 11.8115L9.0097 13.1039L11.0628 11.2481C11.1271 11.1836 11.5509 10.7823 12.1322 10.7748C12.1379 10.7747 12.1436 10.7747 12.1493 10.7747Z" fill="#64A8DF"/>
<path d="M10.9883 1.84381L13.0636 1.854L10.9883 1.84381Z" fill="white"/>
<path d="M10.9887 2.09418L10.9912 1.59336L13.0665 1.60374L13.064 2.10455L10.9887 2.09418Z" fill="#64A8DF"/>
<path d="M10.9832 3.20728H13.0636V3.70809H10.9832V3.20728Z" fill="#64A8DF"/>
<path d="M10.9687 4.81604H13.0636V5.31685H10.9687V4.81604Z" fill="#64A8DF"/>
<path d="M10.9634 6.4248H13.0636V6.92562H10.9634V6.4248Z" fill="#64A8DF"/>
<path d="M10.9584 8.03357H13.0636V8.53438H10.9584V8.03357Z" fill="#64A8DF"/>
<path d="M12.7423 11.1722L13.5695 9.23328L12.7423 11.1722Z" fill="white"/>
<path d="M12.5078 11.0667L13.3341 9.12735L13.7949 9.32367L12.9685 11.263L12.5078 11.0667Z" fill="#64A8DF"/>
<path d="M14.1034 12.4272L14.9306 10.4883L14.1034 12.4272Z" fill="white"/>
<path d="M13.8685 12.3209L14.6949 10.3816L15.1556 10.5779L14.3293 12.5172L13.8685 12.3209Z" fill="#64A8DF"/>
<path d="M11.3865 11.1722L10.5593 9.23328L11.3865 11.1722Z" fill="white"/>
<path d="M10.3281 9.33972L10.7889 9.1434L11.6152 11.0828L11.1545 11.2791L10.3281 9.33972Z" fill="#64A8DF"/>
<path d="M10.0254 12.4272L9.1982 10.4883L10.0254 12.4272Z" fill="white"/>
<path d="M8.96627 10.5942L9.42702 10.3979L10.2534 12.3372L9.79261 12.5335L8.96627 10.5942Z" fill="#64A8DF"/>
<path d="M19.3539 11.488C19.3539 11.488 17.8515 9.54048 16.9798 10.6348C15.8283 12.0803 15.0509 12.8976 15.1251 13.4911C15.1993 14.0846 15.3106 15.1604 14.9025 15.8281C14.4944 16.4958 13.5671 17.6087 13.9751 18.4247C14.3832 19.2408 15.0509 20.2795 14.8654 20.9472C14.6799 21.6149 13.4558 23.4696 14.0494 25.2502C14.6429 27.0308 16.0896 28.1807 17.5734 28.3662C19.0573 28.5517 19.5395 29.2565 19.9475 29.9242C20.3556 30.5919 21.3942 31.8161 22.4699 31.3709C23.5457 30.9258 23.5086 29.2936 23.657 28.4033C23.8054 27.513 24.3618 22.8761 24.3618 22.8761C24.3618 22.8761 24.6719 21.2552 23.7312 18.3134C22.711 15.1233 19.3539 11.488 19.3539 11.488Z" fill="#64A8DF"/>
<path d="M5.05688 11.488C5.05688 11.488 6.55926 9.54048 7.43094 10.6348C8.58244 12.0803 9.35988 12.8976 9.2857 13.4911C9.21151 14.0846 9.10019 15.1604 9.50826 15.8281C9.91632 16.4958 10.8437 17.6087 10.4356 18.4247C10.0276 19.2408 9.35988 20.2795 9.54532 20.9472C9.73082 21.6149 10.9549 23.4696 10.3614 25.2502C9.76788 27.0308 8.32113 28.1807 6.83732 28.3662C5.35351 28.5517 4.87126 29.2565 4.46326 29.9242C4.0552 30.5919 3.01657 31.8161 1.94082 31.3709C0.86507 30.9258 0.902132 29.2936 0.753757 28.4033C0.605382 27.513 0.0489448 22.8761 0.0489448 22.8761C0.0489448 22.8761 -0.261118 21.2552 0.67957 18.3134C1.69976 15.1233 5.05688 11.488 5.05688 11.488Z" fill="#64A8DF"/>
<path d="M1.53994 21.0904C1.41432 21.0904 1.30601 20.9961 1.29144 20.8683C1.27582 20.7309 1.37451 20.6068 1.51188 20.5912C1.53951 20.588 4.28344 20.2726 5.16232 19.9345C5.77957 19.6972 7.86932 16.9381 9.04157 15.2547C9.12063 15.1412 9.27669 15.1133 9.39019 15.1924C9.50369 15.2714 9.53163 15.4275 9.45257 15.5409C9.44488 15.552 8.67013 16.6632 7.79282 17.8032C5.98232 20.1557 5.50051 20.341 5.34219 20.402C4.40401 20.7628 1.68394 21.0756 1.56863 21.0887C1.55894 21.0899 1.54938 21.0904 1.53994 21.0904Z" fill="white"/>
<path d="M7.47919 18.0498C7.47669 18.0498 7.47419 18.0497 7.47169 18.0497C7.38419 18.0471 5.31807 17.961 4.41888 15.7234C4.36732 15.5951 4.42951 15.4492 4.55788 15.3977C4.68619 15.3462 4.83207 15.4083 4.88357 15.5367C5.66188 17.4734 7.46826 17.5486 7.48644 17.5491C7.62469 17.5532 7.73344 17.6686 7.72938 17.8068C7.72538 17.9424 7.61413 18.0498 7.47919 18.0498Z" fill="white"/>
<path d="M4.10345 18.8324C4.08332 18.8324 4.06288 18.83 4.04251 18.8249C3.90832 18.7913 3.82676 18.6554 3.86032 18.5212C4.18551 17.2205 5.23976 16.6967 5.28451 16.6751C5.40895 16.6149 5.55876 16.6669 5.61907 16.7913C5.67932 16.9157 5.62732 17.0655 5.50288 17.1258C5.49482 17.1298 4.61301 17.5759 4.34626 18.6426C4.31776 18.7565 4.21563 18.8324 4.10345 18.8324Z" fill="white"/>
<path d="M3.57001 23.3222C3.46688 23.3222 3.37032 23.2581 3.33395 23.1553C2.95413 22.0829 3.67895 20.4548 3.71001 20.3861C3.76688 20.26 3.9152 20.2039 4.04126 20.2608C4.16732 20.3177 4.22338 20.466 4.16651 20.5921C4.15976 20.607 3.49351 22.1057 3.80607 22.9881C3.85226 23.1185 3.78395 23.2616 3.65363 23.3077C3.62601 23.3176 3.59776 23.3222 3.57001 23.3222Z" fill="white"/>
<path d="M7.02007 20.9182C6.94101 20.9182 6.86326 20.8809 6.81457 20.8111C6.42276 20.2501 6.41145 18.9607 6.41145 18.8156C6.41145 18.6773 6.52351 18.5652 6.66176 18.5652C6.80001 18.5652 6.91213 18.6772 6.91226 18.8155C6.91245 19.1665 6.96907 20.1577 7.22513 20.5244C7.30432 20.6377 7.27663 20.7939 7.1632 20.8731C7.11957 20.9036 7.06957 20.9182 7.02007 20.9182Z" fill="white"/>
<path d="M22.8646 21.0904C22.8551 21.0904 22.8456 21.0899 22.8359 21.0888C22.7206 21.0757 20.0005 20.7629 19.0623 20.4021C18.904 20.3412 18.4222 20.1559 16.6117 17.8032C15.7344 16.6633 14.9596 15.5521 14.9519 15.541C14.8729 15.4275 14.9008 15.2714 15.0143 15.1924C15.1279 15.1134 15.2839 15.1414 15.3629 15.2548C16.5352 16.9382 18.6249 19.6973 19.2422 19.9346C20.1211 20.2727 22.8651 20.5881 22.8926 20.5912C23.0301 20.6069 23.1288 20.731 23.1131 20.8684C23.0985 20.9961 22.9902 21.0904 22.8646 21.0904Z" fill="white"/>
<path d="M16.9253 18.0498C16.7904 18.0498 16.6791 17.9425 16.6751 17.8067C16.671 17.6685 16.7798 17.5531 16.918 17.549C16.9916 17.5464 18.7469 17.4624 19.5209 15.5366C19.5724 15.4083 19.7183 15.3461 19.8466 15.3976C19.9749 15.4492 20.0371 15.595 19.9856 15.7234C19.0863 17.961 17.0202 18.047 16.9327 18.0496C16.9303 18.0497 16.9278 18.0498 16.9253 18.0498Z" fill="white"/>
<path d="M20.3011 18.8324C20.1889 18.8324 20.0868 18.7565 20.0583 18.6427C19.7893 17.5668 18.9105 17.1301 18.9017 17.1259C18.7772 17.0656 18.7252 16.9158 18.7855 16.7914C18.8458 16.6669 18.9957 16.6149 19.1201 16.6752C19.1648 16.6969 20.2191 17.2206 20.5443 18.5213C20.5778 18.6554 20.4963 18.7914 20.3621 18.8249C20.3416 18.83 20.3212 18.8324 20.3011 18.8324Z" fill="white"/>
<path d="M20.8345 23.3222C20.8068 23.3222 20.7786 23.3176 20.7509 23.3078C20.6206 23.2616 20.5523 23.1185 20.5984 22.9881C20.8585 22.254 20.4264 21.0096 20.238 20.5921C20.1811 20.466 20.2372 20.3177 20.3633 20.2608C20.4894 20.2039 20.6376 20.26 20.6945 20.3861C20.7256 20.4548 21.4503 22.083 21.0705 23.1553C21.0341 23.2581 20.9376 23.3222 20.8345 23.3222Z" fill="white"/>
<path d="M17.3844 20.9182C17.3349 20.9182 17.2849 20.9036 17.2413 20.8731C17.1279 20.7939 17.1002 20.6377 17.1794 20.5244C17.4354 20.1577 17.4921 19.1665 17.4923 18.8155C17.4923 18.6772 17.6044 18.5652 17.7427 18.5652H17.7428C17.881 18.5652 17.9931 18.6773 17.9931 18.8156C17.9931 18.9607 17.9818 20.2501 17.5899 20.8111C17.5413 20.8809 17.4635 20.9182 17.3844 20.9182Z" fill="white"/>
<path d="M0.753882 28.605C0.700695 28.605 0.64757 28.5841 0.607945 28.5426C0.531007 28.462 0.534007 28.3343 0.614569 28.2574C0.630757 28.2419 2.23707 26.6945 2.23707 25.5758C2.23707 25.4643 2.32738 25.374 2.43882 25.374C2.55026 25.374 2.64057 25.4643 2.64057 25.5758C2.64057 26.8669 0.964569 28.4811 0.893194 28.5492C0.854007 28.5865 0.803882 28.605 0.753882 28.605Z" fill="white"/>
<path d="M2.43901 28.9063C2.42951 28.9063 2.41988 28.9056 2.41019 28.9042C2.29988 28.8885 2.22332 28.7863 2.23901 28.676C2.37969 27.6914 1.80638 27.1622 1.78188 27.1402C1.69944 27.0659 1.69207 26.9386 1.76594 26.8557C1.83976 26.7729 1.96632 26.7649 2.04957 26.8384C2.08069 26.8659 2.81088 27.5256 2.63838 28.7331C2.62407 28.8337 2.53776 28.9063 2.43901 28.9063Z" fill="white"/>
<path d="M23.6506 28.4761C23.6006 28.4761 23.5504 28.4576 23.5114 28.4204C23.44 28.3523 21.764 26.7381 21.764 25.4469C21.764 25.3355 21.8543 25.2452 21.9658 25.2452C22.0772 25.2452 22.1675 25.3355 22.1675 25.4469C22.1675 26.5673 23.7737 28.113 23.7899 28.1285C23.8706 28.2054 23.8735 28.3331 23.7966 28.4137C23.757 28.4552 23.7039 28.4761 23.6506 28.4761Z" fill="white"/>
<path d="M21.9655 28.7774C21.8668 28.7774 21.7804 28.7048 21.7661 28.6041C21.5936 27.3966 22.3237 26.7369 22.3549 26.7094C22.4384 26.6357 22.5659 26.6436 22.6396 26.7272C22.7131 26.8105 22.7054 26.9375 22.6225 27.0113C22.5968 27.0345 22.025 27.5636 22.1655 28.5471C22.1813 28.6574 22.1046 28.7596 21.9943 28.7753C21.9846 28.7767 21.975 28.7774 21.9655 28.7774Z" fill="white"/>
<path d="M9.24738 27.24C9.23407 27.24 9.22051 27.239 9.20695 27.2368C7.38676 26.9411 6.19013 25.1465 6.14007 25.0703C6.0642 24.9547 6.09638 24.7994 6.21201 24.7235C6.32763 24.6477 6.48276 24.6798 6.55863 24.7953C6.57082 24.8137 7.68788 26.4826 9.2872 26.7424C9.4237 26.7646 9.51638 26.8932 9.49426 27.0297C9.47426 27.1527 9.36801 27.24 9.24738 27.24Z" fill="white"/>
<path d="M7.53976 26.394C7.48601 26.394 7.43244 26.3727 7.39276 26.3305C7.31651 26.2494 7.32032 26.122 7.40119 26.0456C7.40988 26.0374 8.18063 25.2932 7.86676 24.5141C7.82513 24.4107 7.87519 24.2932 7.97851 24.2516C8.08188 24.21 8.19938 24.26 8.24101 24.3634C8.65869 25.4002 7.71819 26.3014 7.67794 26.3392C7.63894 26.3758 7.58932 26.394 7.53976 26.394Z" fill="white"/>
<path d="M15.1571 27.1111C15.0365 27.1111 14.9302 27.0237 14.9103 26.9008C14.8881 26.7643 14.9808 26.6357 15.1173 26.6135C16.7174 26.3535 17.8348 24.6832 17.8459 24.6663C17.922 24.5509 18.0772 24.5188 18.1926 24.5948C18.3081 24.6707 18.3403 24.8258 18.2644 24.9413C18.2144 25.0175 17.0178 26.8121 15.1976 27.1078C15.184 27.11 15.1704 27.1111 15.1571 27.1111Z" fill="white"/>
<path d="M16.8646 26.265C16.8151 26.265 16.7655 26.2469 16.7266 26.2103C16.6863 26.1724 15.7459 25.2713 16.1635 24.2344C16.2051 24.1311 16.3226 24.081 16.426 24.1226C16.5294 24.1643 16.5794 24.2818 16.5378 24.3851C16.2238 25.1647 16.9955 25.9093 17.0033 25.9167C17.0841 25.9933 17.0877 26.1208 17.0113 26.2017C16.9716 26.2438 16.9181 26.265 16.8646 26.265Z" fill="white"/>
</svg>
