<svg width="32" height="32" viewBox="0 0 32 32" fill="none" xmlns="http://www.w3.org/2000/svg">
<path d="M11.6458 12.4863C11.4606 12.4103 11.2638 12.3665 11.0639 12.357C11.1118 12.2279 11.1667 12.1015 11.2283 11.9783C11.5583 11.3141 12.0803 10.7645 12.7265 10.4006C13.3885 10.031 14.1585 9.90303 14.9045 10.0386C15.2768 10.1054 15.6372 10.2268 15.9741 10.3988C16.2456 10.5427 16.5302 10.6602 16.8241 10.7498C17.1902 10.8618 17.5789 10.8777 17.9528 10.796C17.9953 10.7867 18.0341 10.7772 18.0674 10.772C18.3972 10.704 18.7376 10.7055 19.0668 10.7765C19.396 10.8474 19.7068 10.9862 19.9794 11.1839C20.388 11.4847 20.7073 11.8908 20.9031 12.3589C20.7145 12.3714 20.5292 12.4145 20.3544 12.4864C20.1187 12.5832 19.9096 12.7353 19.7448 12.9297C19.5421 13.1712 19.4143 13.4667 19.3772 13.7797C18.5403 13.8222 17.7459 13.7631 17.0181 13.5654C16.1906 13.3519 15.4382 12.914 14.8438 12.3C14.7602 12.2131 14.6455 12.1629 14.525 12.1605C14.4044 12.1581 14.2878 12.2036 14.2008 12.2871C14.1924 12.2946 14.1844 12.3026 14.1769 12.3111V12.3092C13.8206 12.7064 13.4989 12.9706 13.1682 13.1572C12.9684 13.2675 12.758 13.3573 12.5401 13.4251C12.4766 13.2439 12.3801 13.076 12.2556 12.9299C12.0904 12.7358 11.8813 12.5837 11.6458 12.4863ZM14.6238 23.9843V24.7787C14.6262 25.1421 14.7723 25.4898 15.0301 25.7459C15.288 26.002 15.6366 26.1457 16 26.1457C16.3634 26.1457 16.7121 26.002 16.9699 25.7459C17.2278 25.4898 17.3739 25.1421 17.3763 24.7787V23.9806C16.939 24.1514 16.4749 24.2434 16.0056 24.2522H15.9926C15.5241 24.2449 15.0605 24.1541 14.6238 23.9843ZM11.6125 14.6312C11.8028 14.0918 11.7381 13.7279 11.5608 13.5172C11.489 13.4343 11.3984 13.3697 11.2966 13.3289C11.1898 13.2837 11.0746 13.2616 10.9586 13.2642C10.8582 13.2651 10.759 13.2858 10.6667 13.3251C10.6501 13.3344 10.6334 13.3439 10.6167 13.351C10.5322 13.3948 10.4643 13.4649 10.4229 13.5506L9.78544 14.8917L11.0675 16.1738L11.6125 14.6312ZM26.3822 23.7423C26.3465 23.6102 26.2988 23.4816 26.2399 23.3581L22.6302 15.7672L21.2688 17.1269L23.2842 22.8297C23.2953 22.8564 23.3033 22.8843 23.3082 22.9128C23.3197 22.9715 23.3195 23.0319 23.3076 23.0906C23.2958 23.1492 23.2724 23.2049 23.2389 23.2545C23.2055 23.3041 23.1626 23.3466 23.1126 23.3796C23.0627 23.4126 23.0068 23.4354 22.948 23.4467C22.0243 23.6296 21.1911 23.8069 20.3949 23.9861C19.6689 24.1486 18.9799 24.3094 18.2887 24.4757V24.7787C18.2887 25.3857 18.0475 25.9679 17.6183 26.3972C17.189 26.8264 16.6069 27.0676 15.9998 27.0676C15.3928 27.0676 14.8106 26.8264 14.3813 26.3972C13.9521 25.9679 13.7109 25.3857 13.7109 24.7787V24.472C12.9498 24.2907 12.2422 24.1266 11.6047 23.9845C10.814 23.8071 9.98269 23.6316 9.04981 23.447C9.02844 23.4432 9.00741 23.4377 8.98694 23.4304C8.87294 23.39 8.77959 23.3061 8.72732 23.1971C8.67504 23.088 8.6681 22.9627 8.708 22.8485L10.7291 17.1272L9.36938 15.7676L5.76006 23.3581C5.70116 23.4816 5.65355 23.6102 5.61781 23.7423C5.52913 24.0693 5.54025 24.3704 5.64906 24.6216C5.75438 24.8674 5.95944 25.0742 6.26238 25.2183C6.37537 25.2711 6.49283 25.3138 6.61338 25.3458L11.4719 26.6464C11.5743 26.6682 11.6661 26.7245 11.732 26.8059C11.7979 26.8872 11.8339 26.9887 11.834 27.0934V32H20.1658V27.0937H20.1676C20.167 26.9933 20.1999 26.8955 20.2611 26.8158C20.3223 26.7362 20.4084 26.6792 20.5057 26.6541L25.3846 25.3461C25.5058 25.3144 25.6239 25.2717 25.7374 25.2186C26.0404 25.0746 26.2437 24.8677 26.3508 24.6219C26.4598 24.3704 26.4708 24.0693 26.3822 23.7423ZM17.5703 22.8923C17.064 23.1694 16.5302 23.3376 15.9963 23.3431C15.4661 23.3376 14.9323 23.1712 14.4298 22.896C14.4039 22.8791 14.3767 22.8642 14.3485 22.8517C14.0253 22.6645 13.7226 22.4441 13.4452 22.194C12.5751 21.4162 11.9156 20.3762 11.6809 19.4359C11.6163 19.1754 11.559 18.9205 11.5147 18.6547C11.473 18.3917 11.447 18.1265 11.4371 17.8604L11.6754 17.1842C11.6828 17.1674 11.689 17.1501 11.6941 17.1325L12.4718 14.9341C12.5393 14.7447 12.5882 14.5492 12.6178 14.3504C12.9647 14.2585 13.2991 14.1245 13.6135 13.9513C13.9475 13.7601 14.2555 13.5267 14.5298 13.2567C15.1784 13.821 15.9483 14.2281 16.7798 14.4464C17.6093 14.6718 18.5089 14.7365 19.4511 14.6847C19.4733 14.766 19.4991 14.8491 19.5287 14.9341L20.3063 17.1324C20.3114 17.15 20.3177 17.1673 20.325 17.1841L20.5559 17.8399C20.5479 18.1105 20.522 18.3801 20.4783 18.6472C20.4358 18.9151 20.3767 19.1737 20.3121 19.4361C20.0774 20.3764 19.4161 21.4164 18.5478 22.1942C18.2718 22.4424 17.9709 22.6616 17.65 22.8482C17.6222 22.8607 17.5956 22.8755 17.5703 22.8925V22.8923ZM17.3265 17.2264C17.3553 17.2673 17.391 17.3029 17.4318 17.3317L18.4054 18.0448C18.4535 18.0802 18.5082 18.1058 18.5662 18.1201C18.6243 18.1344 18.6846 18.1371 18.7437 18.1281C18.8028 18.1191 18.8595 18.0986 18.9107 18.0676C18.9618 18.0367 19.0064 17.996 19.0418 17.9478C19.0772 17.8997 19.1028 17.845 19.1171 17.787C19.1314 17.7289 19.1341 17.6687 19.1251 17.6096C19.1161 17.5505 19.0955 17.4937 19.0646 17.4426C19.0337 17.3914 18.993 17.3469 18.9448 17.3114L18.4625 16.9587L18.9446 16.6059C18.9953 16.5715 19.0385 16.5272 19.0717 16.4756C19.1049 16.4241 19.1274 16.3664 19.1377 16.306C19.1481 16.2456 19.1463 16.1837 19.1322 16.124C19.1181 16.0644 19.0922 16.0082 19.056 15.9587C19.0197 15.9093 18.9739 15.8677 18.9212 15.8364C18.8685 15.8051 18.81 15.7847 18.7493 15.7765C18.6885 15.7683 18.6268 15.7724 18.5676 15.7886C18.5085 15.8047 18.4533 15.8327 18.4052 15.8707L17.4243 16.5911C17.3759 16.6263 17.335 16.6707 17.3039 16.7217C17.2729 16.7728 17.2522 16.8294 17.2431 16.8885C17.234 16.9476 17.2366 17.0079 17.2509 17.0659C17.2652 17.1239 17.2909 17.1785 17.3264 17.2266L17.3265 17.2264ZM13.5855 18.045L14.5591 17.3319C14.6009 17.3037 14.6372 17.268 14.6662 17.2266C14.7375 17.1294 14.7672 17.0078 14.7488 16.8886C14.7305 16.7694 14.6655 16.6624 14.5683 16.5911L13.5855 15.8707C13.488 15.7994 13.3662 15.7698 13.2468 15.7883C13.1275 15.8069 13.0204 15.8721 12.9491 15.9696C12.8779 16.0671 12.8482 16.1889 12.8668 16.3082C12.8853 16.4276 12.9505 16.5347 13.048 16.6059L13.5283 16.9587L13.048 17.3116C12.9998 17.3469 12.9591 17.3913 12.9281 17.4424C12.8972 17.4934 12.8765 17.5501 12.8674 17.6091C12.8583 17.6681 12.861 17.7283 12.8751 17.7863C12.8893 17.8443 12.9148 17.8989 12.9501 17.9471C12.9854 17.9952 13.0298 18.0359 13.0808 18.0669C13.1319 18.0979 13.1885 18.1185 13.2475 18.1276C13.3065 18.1367 13.3667 18.1341 13.4247 18.1199C13.4827 18.1058 13.5373 18.0803 13.5855 18.045ZM17.8548 21.4996C17.8934 21.4539 17.9225 21.401 17.9405 21.3439C17.9586 21.2868 17.9651 21.2268 17.9598 21.1672C17.9545 21.1075 17.9374 21.0496 17.9095 20.9966C17.8817 20.9436 17.8436 20.8967 17.7975 20.8586C17.2138 20.369 16.6152 20.1104 16.0019 20.103C15.3831 20.0956 14.7769 20.3431 14.1859 20.8678C14.1406 20.9072 14.1036 20.9551 14.077 21.0089C14.0504 21.0626 14.0346 21.1211 14.0307 21.181C14.0269 21.2408 14.0349 21.3009 14.0543 21.3576C14.0737 21.4144 14.1042 21.4667 14.144 21.5116C14.1838 21.5565 14.232 21.5931 14.286 21.6192C14.34 21.6453 14.3987 21.6605 14.4586 21.6639C14.5184 21.6672 14.5784 21.6587 14.635 21.6387C14.6915 21.6188 14.7436 21.5878 14.7881 21.5476C15.2019 21.1818 15.6028 21.0082 15.9908 21.0119C16.3824 21.0174 16.7908 21.204 17.2138 21.5569C17.2596 21.5953 17.3125 21.6243 17.3695 21.6422C17.4266 21.6601 17.4866 21.6666 17.5461 21.6612C17.6057 21.6559 17.6636 21.6389 17.7165 21.6112C17.7695 21.5834 17.8165 21.5455 17.8548 21.4996ZM20.4392 13.5171C20.26 13.7277 20.1972 14.0917 20.3875 14.6311L20.9325 16.1737L22.2146 14.8916L21.5753 13.5504C21.5323 13.4609 21.4609 13.3881 21.3721 13.3435C21.3575 13.3378 21.3433 13.331 21.3296 13.3232C21.2385 13.2845 21.1405 13.2644 21.0414 13.2641C20.9254 13.2615 20.8102 13.2836 20.7034 13.3287C20.6015 13.3696 20.511 13.4342 20.4392 13.5171Z" fill="#27276D"/>
<path fill-rule="evenodd" clip-rule="evenodd" d="M9.63581 8.7125C9.66966 8.76195 9.6934 8.81759 9.70569 8.87624C9.71797 8.93488 9.71855 8.99538 9.7074 9.05425C9.69624 9.11312 9.67357 9.16921 9.64068 9.2193C9.60779 9.26939 9.56534 9.31249 9.51575 9.34612C9.47692 9.37175 9.43462 9.39166 9.39012 9.40525L8.34456 9.71875L9.38462 11.0875C9.42141 11.135 9.44841 11.1893 9.46407 11.2473C9.47972 11.3053 9.48372 11.3658 9.47583 11.4254C9.46795 11.4849 9.44833 11.5423 9.41812 11.5942C9.3879 11.6461 9.34769 11.6915 9.29981 11.7278C9.25194 11.7641 9.19734 11.7905 9.13918 11.8056C9.08103 11.8206 9.02047 11.8239 8.961 11.8154C8.90154 11.8069 8.84436 11.7867 8.79277 11.7559C8.74118 11.7251 8.6962 11.6845 8.66044 11.6362L7.24719 9.77369C7.20249 9.72379 7.16965 9.66444 7.15112 9.60006C7.11637 9.48444 7.12895 9.35974 7.18611 9.25339C7.24327 9.14704 7.34033 9.06775 7.45594 9.03294L8.53294 8.7115L7.25825 6.8475C7.19157 6.74776 7.16695 6.62574 7.18974 6.50795C7.21253 6.39016 7.2809 6.28612 7.37997 6.21846C7.47904 6.15079 7.60082 6.12496 7.71883 6.14659C7.83684 6.16821 7.94154 6.23554 8.01019 6.33394L9.63581 8.7125ZM10.8 3.03338C10.7684 2.98253 10.7271 2.93841 10.6784 2.90355C10.6298 2.86869 10.5747 2.84377 10.5164 2.83021C10.4581 2.81666 10.3977 2.81475 10.3386 2.82458C10.2796 2.83441 10.223 2.85579 10.1723 2.88749C10.1215 2.9192 10.0775 2.96061 10.0427 3.00936C10.008 3.0581 9.98317 3.11322 9.96975 3.17156C9.95633 3.2299 9.95455 3.29032 9.96452 3.34935C9.97448 3.40837 9.99599 3.46486 10.0278 3.51556L11.7366 6.24594L10.1811 6.35306C10.0606 6.36109 9.94827 6.41655 9.86861 6.50728C9.78894 6.59801 9.7485 6.71662 9.75612 6.83712C9.76279 6.92935 9.79687 7.01748 9.854 7.09019L11.3964 9.2C11.4677 9.2975 11.5747 9.36269 11.6941 9.38124C11.8134 9.39978 11.9352 9.37015 12.0327 9.29887C12.1302 9.2276 12.1954 9.12051 12.214 9.00117C12.2325 8.88182 12.2029 8.76 12.1316 8.6625L11.0657 7.20487L12.5491 7.10331C12.6283 7.09965 12.7052 7.07527 12.772 7.03259C12.8388 6.98992 12.8933 6.93046 12.93 6.86015C12.9666 6.78983 12.9842 6.71113 12.9809 6.63191C12.9776 6.55269 12.9535 6.47572 12.9112 6.40869L10.8 3.03338ZM21.8121 6.35306L20.2562 6.24594L21.9651 3.51556C21.9969 3.46486 22.0184 3.40837 22.0284 3.34935C22.0383 3.29032 22.0365 3.2299 22.0231 3.17156C22.0097 3.11322 21.9849 3.0581 21.9502 3.00936C21.9154 2.96061 21.8714 2.9192 21.8206 2.88749C21.7698 2.85579 21.7133 2.83441 21.6543 2.82458C21.5952 2.81475 21.5348 2.81666 21.4765 2.83021C21.4182 2.84377 21.3631 2.86869 21.3144 2.90355C21.2658 2.93841 21.2245 2.98253 21.1929 3.03338L19.0795 6.40837C19.0376 6.47549 19.0139 6.55238 19.0108 6.63146C19.0077 6.71053 19.0253 6.78904 19.0619 6.85921C19.0985 6.92938 19.1528 6.98879 19.2193 7.03155C19.2859 7.07431 19.3625 7.09894 19.4416 7.103L20.9268 7.20456L19.861 8.6625C19.7897 8.75975 19.76 8.88134 19.7784 9.0005C19.7967 9.11967 19.8617 9.22666 19.9589 9.29794C20.0562 9.36921 20.1778 9.39894 20.2969 9.38057C20.4161 9.36221 20.5231 9.29725 20.5944 9.2L22.1388 7.09031C22.1961 7.01787 22.2297 6.92948 22.2348 6.83725C22.2429 6.71695 22.2029 6.59837 22.1236 6.50757C22.0442 6.41677 21.9321 6.36119 21.8118 6.35306H21.8121ZM24.5351 9.03362L23.4601 8.71219L24.7351 6.84819C24.8032 6.74848 24.8289 6.62581 24.8066 6.50715C24.7842 6.38849 24.7157 6.28357 24.616 6.21547C24.5163 6.14737 24.3936 6.12166 24.2749 6.14401C24.1563 6.16635 24.0513 6.23492 23.9832 6.33462L22.3567 8.7125C22.3229 8.76195 22.2992 8.81759 22.2869 8.87624C22.2746 8.93488 22.274 8.99538 22.2852 9.05425C22.2963 9.11312 22.319 9.1692 22.3519 9.21929C22.3848 9.26938 22.4272 9.31248 22.4768 9.34612C22.5155 9.37208 22.5579 9.39201 22.6025 9.40525L23.6481 9.71931L22.608 11.0881C22.5712 11.1356 22.5442 11.1899 22.5286 11.2479C22.5129 11.3058 22.5089 11.3664 22.5168 11.4259C22.5247 11.4855 22.5443 11.5429 22.5745 11.5948C22.6047 11.6467 22.6449 11.6921 22.6928 11.7284C22.7407 11.7647 22.7953 11.7911 22.8534 11.8061C22.9116 11.8212 22.9722 11.8245 23.0316 11.816C23.0911 11.8075 23.1483 11.7872 23.1999 11.7565C23.2514 11.7257 23.2964 11.685 23.3322 11.6368L24.7436 9.77425C24.7888 9.72447 24.8223 9.66512 24.8415 9.60063C24.8587 9.54326 24.8644 9.48306 24.8583 9.42348C24.8522 9.36391 24.8344 9.30612 24.8059 9.25345C24.7774 9.20077 24.7388 9.15423 24.6923 9.11651C24.6457 9.07879 24.5922 9.05062 24.5348 9.03362H24.5351ZM16.9 0H15.0523L13.7666 3.97181H15.8504L14.9951 8.25931L18.2242 2.725H16.1146L16.9 0Z" fill="#FD5C70"/>
</svg>
