<svg width="17" height="32" viewBox="0 0 17 32" fill="none" xmlns="http://www.w3.org/2000/svg">
<path d="M10.644 19.7097V3.88501C10.644 1.73926 8.90453 0 6.75903 0C4.61328 0 2.87402 1.73926 2.87402 3.88501V19.7097C1.13574 20.9326 0 22.9541 0 25.241C0 28.9739 3.02612 32 6.75903 32C10.4919 32 13.5181 28.9739 13.5181 25.241C13.5181 22.9541 12.3821 20.9326 10.644 19.7097Z" fill="#D8D8D8"/>
<path d="M6.75902 29.7864C4.18505 29.7864 2.09106 27.6921 2.09106 25.1184C2.09106 23.1638 3.30566 21.4236 5.12816 20.7446V3.88501C5.12816 2.9856 5.85961 2.25415 6.75902 2.25415C7.65819 2.25415 8.38988 2.9856 8.38988 3.88501V20.7446C10.2121 21.4233 11.427 23.1636 11.427 25.1182C11.427 27.6921 9.33299 29.7864 6.75902 29.7864Z" fill="#F3E8D7"/>
<path d="M5.12816 6.86694V20.7446C3.30566 21.4233 2.09106 23.1636 2.09106 25.1182C2.09106 27.6921 4.18505 29.7861 6.75902 29.7861C9.33299 29.7861 11.427 27.6921 11.427 25.1182C11.427 23.1636 10.2121 21.4233 8.38988 20.7446V6.86694H5.12816Z" fill="#FC4E51"/>
<path d="M16.0249 11.2637H13.2234C12.9565 11.2637 12.7405 11.0474 12.7405 10.7808C12.7405 10.5142 12.9565 10.2979 13.2234 10.2979H16.0249C16.2915 10.2979 16.5078 10.5142 16.5078 10.7808C16.5078 11.0474 16.2915 11.2637 16.0249 11.2637Z" fill="#0D6E9A"/>
<path d="M14.4953 7.34985H13.2234C12.9565 7.34985 12.7405 7.13354 12.7405 6.86694C12.7405 6.60034 12.9565 6.38403 13.2234 6.38403H14.4953C14.7619 6.38403 14.9783 6.60034 14.9783 6.86694C14.9783 7.13354 14.7619 7.34985 14.4953 7.34985Z" fill="#0D6E9A"/>
<path d="M14.946 3.43604H13.2234C12.9565 3.43604 12.7405 3.21973 12.7405 2.95312C12.7405 2.68652 12.9565 2.47021 13.2234 2.47021H14.946C15.2129 2.47021 15.429 2.68652 15.429 2.95312C15.429 3.21973 15.2129 3.43604 14.946 3.43604Z" fill="#0D6E9A"/>
<path d="M14.946 19.0913H13.2234C12.9565 19.0913 12.7405 18.875 12.7405 18.6084C12.7405 18.3416 12.9565 18.1255 13.2234 18.1255H14.946C15.2129 18.1255 15.4289 18.3416 15.4289 18.6084C15.4289 18.875 15.2129 19.0913 14.946 19.0913Z" fill="#0D6E9A"/>
<path d="M14.4953 15.1775H13.2234C12.9565 15.1775 12.7405 14.9612 12.7405 14.6946C12.7405 14.428 12.9565 14.2117 13.2234 14.2117H14.4953C14.7619 14.2117 14.9783 14.428 14.9783 14.6946C14.9783 14.9612 14.7619 15.1775 14.4953 15.1775Z" fill="#0D6E9A"/>
<path d="M8.38988 20.7446V6.86694H5.12816V20.7446C5.12816 20.7446 7.3828 21.7908 7.3828 25.1182C7.3828 26.9683 6.30101 28.5703 4.7368 29.3252C5.34886 29.6206 6.0349 29.7861 6.75878 29.7861C9.33275 29.7861 11.427 27.6921 11.427 25.1182C11.427 23.1636 10.2121 21.4236 8.38988 20.7446Z" fill="#E5394B"/>
</svg>
