<svg width="21" height="21" viewBox="0 0 21 21" fill="none" xmlns="http://www.w3.org/2000/svg">
<path d="M10 20C8.66 20 7.33 19.74 6.1 19.21C4.91 18.71 3.84 17.98 2.92 17.07C2.01 16.16 1.29 15.08 0.78 13.89C0.26 12.67 0 11.34 0 10C0 8.66 0.26 7.33 0.79 6.1C1.29 4.91 2.02 3.84 2.93 2.92C3.84 2.01 4.92 1.29 6.11 0.78C7.33 0.26 8.66 0 10 0C11.34 0 12.67 0.26 13.9 0.79C15.08 1.29 16.16 2.02 17.08 2.93C17.99 3.84 18.71 4.92 19.22 6.11C19.75 7.34 20.02 8.67 20.01 10.01C20.01 11.35 19.75 12.68 19.22 13.91C18.72 15.1 17.99 16.17 17.08 17.09C16.17 18 15.09 18.72 13.9 19.23C12.67 19.76 11.34 20.03 10 20.02V20ZM9.44 10.7L8.11 9.28C7.93 9.09 7.68 8.98 7.42 8.98C7.16 8.98 6.91 9.09 6.73 9.28C6.54 9.47 6.43 9.73 6.43 10C6.42 10.27 6.52 10.53 6.71 10.72L8.76 12.87C8.93 13.06 9.18 13.17 9.44 13.17C9.7 13.17 9.94 13.06 10.12 12.87L14.22 8.57C14.41 8.38 14.51 8.12 14.51 7.85C14.51 7.58 14.41 7.32 14.22 7.13C14.04 6.94 13.79 6.83 13.53 6.83C13.27 6.83 13.02 6.94 12.84 7.13L9.44 10.7Z" fill="#42BE37"/>
</svg>
