<svg width="16" height="16" viewBox="0 0 16 16" fill="none" xmlns="http://www.w3.org/2000/svg">
<path d="M8 16C3.58892 16 0 12.4111 0 8C0 3.58892 3.58892 0 8 0C12.4111 0 16 3.58892 16 8C16 12.4111 12.4111 16 8 16ZM8 1.23077C4.26708 1.23077 1.23077 4.26708 1.23077 8C1.23077 11.7317 4.26708 14.7692 8 14.7692C11.7329 14.7692 14.7692 11.7317 14.7692 8C14.7692 4.26708 11.7329 1.23077 8 1.23077Z" fill="black"/>
<path d="M11.0769 11.6923C10.9428 11.6923 10.8062 11.648 10.6929 11.5582L7.616 9.09661C7.46954 8.97969 7.38461 8.80246 7.38461 8.61538V4.30769C7.38461 3.968 7.66031 3.69231 8 3.69231C8.33969 3.69231 8.61538 3.968 8.61538 4.30769V8.32L11.4609 10.5969C11.7255 10.8098 11.7686 11.1963 11.5569 11.4622C11.4363 11.6135 11.2566 11.6923 11.0769 11.6923Z" fill="black"/>
</svg>
