<svg width="24" height="24" viewBox="0 0 24 24" fill="none" xmlns="http://www.w3.org/2000/svg">
<g clip-path="url(#clip0_1_53)">
<path d="M11.9812 17.3437C11.25 17.325 10.5937 16.65 10.6125 15.9187C10.6312 15.1875 11.3062 14.5312 12.0375 14.55C12.7687 14.5687 13.425 15.2437 13.4062 15.9562C13.3875 16.7062 12.7125 17.3625 11.9812 17.3437Z" fill="#343433"/>
<path d="M13.5187 7.06875C13.3687 8.7 13.2 10.3313 13.0312 11.9438C12.9375 12.8625 12.375 13.2188 11.5125 12.8813C11.3063 12.7875 11.0813 12.4688 11.0438 12.225C10.875 10.8563 10.7437 9.4875 10.6125 8.11875C10.5562 7.5375 10.5188 6.9375 10.4438 6.35625C10.3688 5.6625 10.575 5.41875 11.2875 5.41875H12C13.6688 5.4 13.6688 5.4 13.5187 7.06875Z" fill="#343433"/>
<path d="M23.6063 19.0312C23.3813 18.5063 23.175 17.8875 23.0625 17.5875L23.0063 17.4C22.2188 15.2625 21.9375 12.975 21.7875 11.0063V10.95C21.6188 8.8125 21.4313 6.61875 20.025 4.725C18.2063 2.26875 15.3188 0.806252 12.2625 0.806252H12H11.7375C8.70001 0.806252 5.79376 2.26875 3.97501 4.725C2.56876 6.6375 2.38126 8.83125 2.21251 11.0063C2.06251 12.9563 1.80001 15.2438 0.993757 17.4L0.918757 17.5875C0.806257 17.9063 0.600007 18.4875 0.393757 19.0312C0.187507 19.5375 0.243757 20.1 0.562507 20.55C0.862507 21 1.36876 21.2625 1.89376 21.2625H8.92501C9.48751 22.425 10.6875 23.1938 12.0188 23.1938C13.35 23.1938 14.55 22.425 15.1125 21.2625H22.1438C22.6688 21.2625 23.175 21 23.475 20.55C23.7563 20.1 23.8125 19.5188 23.6063 19.0312ZM2.00626 19.5563C2.21251 19.0313 2.41876 18.4688 2.53126 18.15L2.58751 17.9813C3.46876 15.6375 3.75001 13.2 3.91876 11.1C4.08751 9.1125 4.23751 7.2375 5.34376 5.71875C6.82501 3.69375 9.22501 2.49375 11.7375 2.49375H12H12.2625C14.775 2.49375 17.1563 3.69375 18.6563 5.71875C19.7813 7.21875 19.9313 9.09375 20.0813 11.0625V11.1188C20.25 13.2 20.55 15.6563 21.4125 17.9813L21.4688 18.1313C21.5625 18.4125 21.7688 18.9937 21.9938 19.5375H2.00626V19.5563Z" fill="#343433"/>
</g>
<defs>
<clipPath id="clip0_1_53">
<rect width="24" height="24" fill="white"/>
</clipPath>
</defs>
</svg>
