<svg width="24" height="24" viewBox="0 0 24 24" fill="none" xmlns="http://www.w3.org/2000/svg">
<path d="M23 11C22.7348 11 22.4804 11.1054 22.2929 11.2929C22.1054 11.4804 22 11.7348 22 12C22.0033 14.2371 21.2574 16.4109 19.8813 18.1747C18.5053 19.9385 16.5783 21.1908 14.4076 21.7319C12.2369 22.2729 9.94757 22.0716 7.90463 21.16C5.86169 20.2485 4.18279 18.6791 3.13565 16.7022C2.08851 14.7253 1.73343 12.4548 2.12704 10.2526C2.52065 8.05037 3.64027 6.04337 5.30738 4.55161C6.97448 3.05985 9.09307 2.16923 11.3253 2.02177C13.5575 1.87431 15.7748 2.4785 17.6237 3.738L16.6837 4.0513C16.5591 4.09285 16.4439 4.15853 16.3447 4.2446C16.2455 4.33066 16.1643 4.43542 16.1055 4.5529C15.987 4.79015 15.9675 5.06479 16.0514 5.3164C16.1353 5.56801 16.3157 5.77598 16.553 5.89456C16.7903 6.01314 17.0649 6.03261 17.3165 5.9487L20.3165 4.9487C20.5156 4.88228 20.6887 4.75492 20.8114 4.58466C20.934 4.41439 21 4.20985 21 4V1C21 0.734784 20.8946 0.48043 20.7071 0.292893C20.5196 0.105357 20.2652 0 20 0C19.7348 0 19.4804 0.105357 19.2929 0.292893C19.1054 0.48043 19 0.734784 19 1V2.2679C16.814 0.699349 14.1639 -0.0883614 11.476 0.0314622C8.78815 0.151286 6.21869 1.17168 4.18091 2.92852C2.14313 4.68537 0.755471 7.07655 0.241128 9.71748C-0.273214 12.3584 0.115652 15.0956 1.34518 17.4888C2.57471 19.8819 4.57344 21.792 7.0199 22.9118C9.46635 24.0316 12.2183 24.296 14.8332 23.6624C17.4481 23.0289 19.774 21.5343 21.4366 19.419C23.0993 17.3036 24.0021 14.6905 24 12C24 11.7348 23.8946 11.4804 23.7071 11.2929C23.5196 11.1054 23.2652 11 23 11Z" fill="black"/>
</svg>
